<?xml version="1.0" encoding="UTF-8" standalone="no"?>
<!DOCTYPE svg  PUBLIC '-//W3C//DTD SVG 1.1//EN'  'http://www.w3.org/Graphics/SVG/1.1/DTD/svg11.dtd'>
<svg xmlns="http://www.w3.org/2000/svg" version="1.1">
<defs>
<font id="SaveurSans-Semi-bold" horiz-adv-x="1168">
<font-face bbox="-9 -424.705 1673 1768" font-weight="400" panose-1="2 0 5 0 0 0 0 0 0 0" font-family="Saveur Sans Semi-bold" underline-thickness="150" descent="-410" unicode-range="U+0020-00FD" x-height="1433" ascent="1638" cap-height="1433" units-per-em="2048" underline-position="-442"/>
<missing-glyph/>
<glyph horiz-adv-x="595" glyph-name="space" unicode=" "/>
<glyph horiz-adv-x="478" glyph-name="exclam" unicode="!" d="M354 398h-237v1037h237v-1037zM234 284q-58 0 -99 -42t-41 -101q0 -60 41 -102t99 -42t99 42t41 102q0 59 -41 101t-99 42z"/>
<glyph horiz-adv-x="679" glyph-name="quotedbl" unicode='&quot;' d="M149 1552l-85 -307h150l137 307h-202zM410 1552l-85 -307h150l137 307h-202z"/>
<glyph horiz-adv-x="1409" glyph-name="numbersign" unicode="#" d="M994 1432l-79 -323h-208l80 323h-239l-79 -323h-229l-59 -231h231l-86 -350h-202l-59 -231h204l-73 -297h238l73 297h208l-73 -297h238l73 297h206l61 231h-210l86 350h179l61 231h-183l80 323h-239zM650 878h208l-86 -350h-208z"/>
<glyph horiz-adv-x="1006" glyph-name="dollar" unicode="$" d="M581 1223q66 -20 97 -61l187 143q-50 65 -125.5 105.5t-158.5 52.5v122h-154v-127q-61 -12 -115.5 -40.5t-101.5 -72.5t-75.5 -111t-30.5 -147q-3 -157 113 -275q43 -42 101 -80q29 -17 49 -28q14 -8 22 -12l10 -6l10 -5l9 -5l9 -4v-462l-12 3q-7 1 -16 5q-22 8 -41 18 q-55 28 -88 78l-194 -133q76 -112 202 -168q41 -19 86 -30l30 -6q16 -2 18 -2l8 -1h7v-120h154v130q61 13 116.5 41t107 73t85.5 116t41 158q15 182 -103 309q-44 47 -98 84.5t-149 90.5v367zM339 1082q1 63 46 104q17 15 42 27v-270q-89 62 -88 139zM696 391 q-6 -83 -66 -131q-20 -17 -49 -29v351q68 -46 94 -88.5t21 -102.5z"/>
<glyph horiz-adv-x="1477" glyph-name="percent" unicode="%" d="M947 1445l-662 -1484h236l663 1484h-237zM635 1069q0 156 -79.5 263.5t-194.5 107.5t-194.5 -107.5t-79.5 -263.5t79.5 -263t194.5 -107t194.5 107t79.5 263zM300 1069q0 70 23 119q19 39 38 39t39 -39q22 -45 22 -119q0 -73 -22 -118q-20 -39 -39 -39t-38 39 q-23 48 -23 118zM1119 732q-115 0 -194.5 -107.5t-79.5 -263.5t79.5 -263.5t194.5 -107.5t194.5 107.5t79.5 263.5t-79.5 263.5t-194.5 107.5zM1119 203q-20 0 -40 41q-21 46 -21 117q0 70 23 118q19 40 38 40q20 0 39 -40q22 -45 22 -118t-21 -119q-18 -39 -40 -39z"/>
<glyph horiz-adv-x="1247" glyph-name="ampersand" unicode="&amp;" d="M515 -25q-183 0 -306.5 117.5t-123.5 304.5q0 129 63.5 232.5t181.5 198.5q-45 68 -73 128q-37 82 -42 153q-9 157 96 260q106 101 255 89q123 -9 204 -97t82 -213q1 -106 -51.5 -194t-152.5 -174l213 -316q16 13 40 77t27 107h212q2 -8 -9 -49q-10 -42 -29 -99 q-49 -146 -112 -227l186 -272l-287 -2l-60 90q-127 -103 -276 -113q-13 -1 -38 -1zM539 1223q-41 0 -66 -26.5t-22 -74.5q4 -50 64 -144q101 94 100 168q0 34 -19 54t-48 22zM463 631q-142 -118 -142 -234q0 -89 57.5 -140.5t157.5 -44.5q83 6 160 74z"/>
<glyph horiz-adv-x="425" glyph-name="quotesingle" unicode="&apos;" d="M158 1552l-85 -307h150l137 307h-202z"/>
<glyph horiz-adv-x="647" glyph-name="parenleft" unicode="(" d="M492 -216q-177 136 -280 387t-103 546q0 287 98.5 534t268.5 386l146 -195q-126 -103 -201.5 -300.5t-75.5 -424.5q0 -234 78 -433.5t209 -300.5z"/>
<glyph horiz-adv-x="639" glyph-name="parenright" unicode=")" d="M27 -17q130 101 208 301t78 433q0 227 -75 424.5t-201 300.5l146 195q170 -139 268.5 -386t98.5 -534q0 -295 -103 -546t-280 -387z"/>
<glyph horiz-adv-x="766" glyph-name="asterisk" unicode="*" d="M270 1430l45 -210l-156 144l-105 -168l199 -65l-199 -66l105 -168l156 144l-45 -209h191l-44 209l155 -144l105 168l-199 66l199 65l-105 168l-155 -144l44 210h-191z"/>
<glyph horiz-adv-x="804" glyph-name="plus" unicode="+" d="M294 1011v-188h-188v-221h188v-188h221v188h188v221h-188v188h-221z"/>
<glyph horiz-adv-x="391" glyph-name="comma" unicode="," d="M102 104l-85 -307h150l137 307h-202z"/>
<glyph horiz-adv-x="783" glyph-name="hyphen" unicode="-" d="M91 581h587v218h-587v-218z"/>
<glyph horiz-adv-x="319" glyph-name="period" unicode="." d="M153 214q-45 0 -77 -32.5t-32 -78.5t32 -79t77 -33t76.5 33t31.5 79t-31.5 78.5t-76.5 32.5z"/>
<glyph horiz-adv-x="761" glyph-name="slash" unicode="/" d="M432 1469l-389 -1497h241l390 1497h-242z"/>
<glyph horiz-adv-x="1127" glyph-name="zero" unicode="0" d="M565 1457q-105 0 -199 -56t-164 -158q-148 -214 -148 -524t148 -524q70 -103 164 -158.5t199 -55.5t199 55.5t164 158.5q148 214 148 524t-148 524q-70 102 -164 158t-199 56zM565 216q-49 0 -98 37t-89 103q-89 151 -89 363t89 363q40 66 89 103t98 37t98.5 -37 t88.5 -103q89 -151 89 -363t-89 -363q-39 -66 -88.5 -103t-98.5 -37z"/>
<glyph horiz-adv-x="531" glyph-name="one" unicode="1" d="M96 1436v-234h97v-1202h234v1436h-331z"/>
<glyph horiz-adv-x="1002" glyph-name="two" unicode="2" d="M705 528q37 50 63 86.5t53 77t44.5 72t33.5 66.5t24 65t13.5 63.5t4.5 67t-7 70.5q-17 118 -87.5 204.5t-170 125.5t-208.5 29q-84 -6 -167 -41q-128 -53 -217 -161l195 -143q49 61 120 91q36 16 90 23h9q14 0 21 -1q35 -3 63 -15q59 -23 87 -76.5t23.5 -118 t-36.5 -126.5q-33 -64 -153 -224q-66 -87 -96 -132q-100 -139 -394 -531l888 1v232h-413q84 113 123 169l71 96z"/>
<glyph horiz-adv-x="1052" glyph-name="three" unicode="3" d="M74 451q0 -192 134 -328.5t323 -136.5q188 0 322 136.5t134 328.5q0 108 -46 203.5t-128 161.5q93 108 93 251q0 158 -110 270t-265 112q-156 0 -266 -112t-110 -270h231q0 63 42.5 107t102.5 44t102 -44t42 -107q0 -62 -42 -106.5t-102 -44.5h-102v-231h102 q93 0 159.5 -68.5t66.5 -165.5t-66.5 -165.5t-159.5 -68.5q-94 0 -160 68.5t-66 165.5h-231z"/>
<glyph horiz-adv-x="1108" glyph-name="four" unicode="4" d="M724 1436l-650 -976v-204h602v-256h232v256h131v232h-131v948h-184zM676 945v-457h-304z"/>
<glyph horiz-adv-x="1006" glyph-name="five" unicode="5" d="M419 995l30 210h343v231h-542l-99 -672l317 1q119 -3 187.5 -83.5t53.5 -208.5q-13 -114 -86.5 -183.5t-176.5 -64.5h-7q-5 1 -16 1l-21 3q-28 5 -54 15q-72 30 -108 97l-203 -110q74 -137 217 -197q45 -20 106 -32q49 -7 71 -7h5l25 -1q186 0 320 126.5t158 326.5 q26 228 -111 389q-134 154 -357 159h-52z"/>
<glyph horiz-adv-x="1095" glyph-name="six" unicode="6" d="M543 964h-7l261 469h-267l-382 -690q-78 -132 -78 -267q0 -132 64 -244.5t175 -178t241 -65.5t240.5 65.5t174.5 178t64 244.5q0 99 -38 189.5t-102 156t-153 104.5t-186 39zM550 220q-103 0 -175.5 75t-72.5 181t72.5 181t175.5 75q102 0 174.5 -75t72.5 -181 t-72.5 -181t-174.5 -75z"/>
<glyph horiz-adv-x="900" glyph-name="seven" unicode="7" d="M88 1433v-233h470l-520 -1200h254l620 1433h-824z"/>
<glyph horiz-adv-x="1062" glyph-name="eight" unicode="8" d="M810 865q76 97 76 223q0 149 -104 255t-251 106t-251 -106t-104 -255q0 -122 74 -220q-95 -69 -148.5 -173.5t-53.5 -224.5q0 -132 64.5 -245t175 -178.5t240.5 -65.5q98 0 186.5 39t153 104.5t102.5 156t38 189.5q0 119 -52.5 222.5t-145.5 172.5zM531 1216 q51 0 87 -37.5t36 -90.5q0 -54 -36 -91.5t-87 -37.5t-87 38t-36 91t36 90.5t87 37.5zM528 214q-102 0 -174.5 75t-72.5 181t72.5 181.5t174.5 75.5q103 0 175.5 -75.5t72.5 -181.5t-72.5 -181t-175.5 -75z"/>
<glyph horiz-adv-x="1075" glyph-name="nine" unicode="9" d="M539 1449q-132 0 -244 -66.5t-177.5 -181t-65.5 -248.5q0 -205 143 -351q67 -70 156.5 -108t187.5 -38l10 1h9l-253 -457h265l378 682h-1q80 125 80 271q0 205 -143 351q-145 145 -345 145zM285 953q0 109 74.5 186t179.5 77q106 0 180.5 -77t74.5 -186t-74.5 -186.5 t-180.5 -77.5q-105 0 -179.5 77.5t-74.5 186.5z"/>
<glyph horiz-adv-x="437" glyph-name="colon" unicode=":" d="M205 949q-45 0 -77 -32.5t-32 -78.5q0 -47 32 -79.5t77 -32.5t76.5 32.5t31.5 79.5q0 46 -31.5 78.5t-76.5 32.5zM205 339q-45 0 -77 -32.5t-32 -78.5t32 -79t77 -33t76.5 33t31.5 79t-31.5 78.5t-76.5 32.5z"/>
<glyph horiz-adv-x="449" glyph-name="semicolon" unicode=";" d="M236 949q-45 0 -77 -32.5t-32 -78.5q0 -47 32 -79.5t77 -32.5t76.5 32.5t31.5 79.5q0 46 -31.5 78.5t-76.5 32.5zM113 104l-85 -307h150l137 307h-202z"/>
<glyph horiz-adv-x="746" glyph-name="less" unicode="&lt;" d="M625 1205l-634 -428v-133l636 -442v289l-314 217l312 210v287z"/>
<glyph horiz-adv-x="735" glyph-name="equal" unicode="=" d="M51 742h587v218h-587v-218zM51 455h587v218h-587v-218z"/>
<glyph horiz-adv-x="783" glyph-name="greater" unicode="&gt;" d="M120 918l311 -210l-313 -217v-289l636 442v133l-635 428z"/>
<glyph horiz-adv-x="939" glyph-name="question" unicode="?" d="M814 1097q-16 114 -84.5 198t-164 122.5t-200.5 29.5q-81 -8 -155 -40q-120 -53 -202 -156l186 -148q46 57 109 86q39 16 82 22q60 2 108 -23q47 -24 69.5 -69t20 -88.5t-22.5 -75.5q-20 -33 -96 -102l-53 -49q-21 -21 -51 -55q-53 -63 -76.5 -126t-30.5 -143l-3 -49v-24 l237 1q0 33 3 54q5 46 13 69q20 55 120 146l18 17l19 17l12.5 12.5l13.5 13.5l11 11q43 45 69 90q71 116 48 259zM372 283q-58 0 -99.5 -42.5t-41.5 -101.5q0 -60 41.5 -102t99.5 -42t99 42t41 102q0 59 -41 101.5t-99 42.5z"/>
<glyph horiz-adv-x="1776" glyph-name="at" unicode="@" d="M1495 1281q-95 107 -232.5 164t-301.5 57t-317.5 -58.5t-275.5 -165.5q-121 -106 -196.5 -248t-92.5 -300q-16 -166 32 -317.5t152 -261.5q103 -111 250 -169.5t321 -58.5h35l-6 169q-305 -10 -477 174q-81 86 -116.5 201.5t-22.5 245.5q13 127 74 240.5t160 199.5 q99 87 222.5 133.5t257.5 46.5q126 0 232 -42.5t177 -121.5q89 -100 109.5 -248.5t-27 -283.5t-143.5 -207q-10 -8 -31 -20l82 730l-236 -1l-7 -74q-115 95 -269 95q-186 0 -331.5 -130t-170.5 -318q-12 -96 13.5 -185t85.5 -157q121 -138 312 -138q155 0 286 94l-12 -123 q41 -8 116 -3h3l3 1q29 1 60 6q17 3 27 6q97 25 184 93t146 180q63 119 79 267.5t-22 287.5q-41 137 -132 240zM1025 712q-13 -99 -92.5 -171.5t-175.5 -72.5q-85 0 -137 60.5t-40 152.5q13 99 92.5 171.5t175.5 72.5q86 0 137.5 -60.5t39.5 -152.5z"/>
<glyph glyph-name="A" unicode="A" d="M519 1433l-485 -1426l-2 -6h250l64 202h468l64 -199l1 -3h251l-496 1430l-1 2h-114zM578 903l160 -462h-317z"/>
<glyph horiz-adv-x="1081" glyph-name="B" unicode="B" d="M741 874q48 86 48 182q0 154 -113.5 264.5t-274.5 112.5h-285v-1433h435q128 1 236 62.5t171 166.5t63 228q0 135 -76 248.5t-204 168.5zM354 915v282h46q63 -1 108 -42.5t45 -98.5q0 -58 -44.5 -99.5t-107.5 -41.5h-47zM354 677h195q97 0 166.5 -65t69.5 -155t-69 -155 t-166 -66h-196v441z"/>
<glyph horiz-adv-x="1085" glyph-name="C" unicode="C" d="M814 -11q-153 0 -288 54t-235 155q-102 102 -157.5 234t-55.5 281q0 146 56.5 279.5t159.5 235.5q101 102 236 158t284 56q74 0 148 -15l4 -1l-48 -229l-4 1q-55 10 -100 10q-101 0 -193.5 -37.5t-161.5 -107.5q-147 -145 -147 -350q0 -136 66.5 -248.5t181.5 -176.5 t254 -64q50 0 102 11h4l49 -229l-4 -1q-63 -16 -151 -16z"/>
<glyph horiz-adv-x="1151" glyph-name="D" unicode="D" d="M126 1433v-1433h228q155 3 290 58.5t236 154.5t155.5 229t54.5 278q0 147 -55 277.5t-157 227.5q-102 98 -238.5 152t-291.5 56h-222zM852 720q0 -197 -139 -334.5t-349 -146.5v956q213 -9 350.5 -143t137.5 -332z"/>
<glyph horiz-adv-x="956" glyph-name="E" unicode="E" d="M107 1433v-1433h756v238h-518v259h438v240h-438v458h518v238h-756z"/>
<glyph horiz-adv-x="986" glyph-name="F" unicode="F" d="M147 1433v-1433h242v485h406v242h-406v464h523v242h-765z"/>
<glyph horiz-adv-x="1191" glyph-name="G" unicode="G" d="M608 501h251v-276q-28 -3 -56 -3q-205 0 -351 146q-70 69 -108 160t-38 191q0 206 146 352q69 70 160 108t191 38q65 0 144 -21l4 -1l65 231l-4 1q-105 30 -209 30q-149 0 -283.5 -56.5t-237.5 -159.5q-103 -104 -160 -239t-57 -283t57 -283t160 -238t238 -160t283 -57 q80 0 151 16l145 36v709h-491v-241z"/>
<glyph horiz-adv-x="1167" glyph-name="H" unicode="H" d="M803 1433v-697h-439v697h-237v-1433h237v498h439v-498h238v1433h-238z"/>
<glyph horiz-adv-x="481" glyph-name="I" unicode="I" d="M117 0h238v1433h-238v-1433z"/>
<glyph horiz-adv-x="936" glyph-name="J" unicode="J" d="M594 406q0 -77 -55 -131t-132 -54q-54 0 -100 29.5t-69 78.5l-2 4l-213 -98l-4 -1l2 -4q52 -113 157 -180.5t229 -67.5q175 0 299.5 123.5t125.5 299.5v1028h-238v-1027z"/>
<glyph horiz-adv-x="1203" glyph-name="K" unicode="K" d="M810 1433l-435 -604v604h-238v-1433h238v422l131 181l355 -603h277l-481 815l442 611l5 7h-294z"/>
<glyph horiz-adv-x="946" glyph-name="L" unicode="L" d="M127 1433v-1433h753v238h-514v1195h-239z"/>
<glyph horiz-adv-x="1401" glyph-name="M" unicode="M" d="M1194 1434l-496 -823l-486 821l-1 2h-94v-1434h238v697l345 -548l3 -6l348 555v-698h238v1434h-95z"/>
<glyph horiz-adv-x="1157" glyph-name="N" unicode="N" d="M1046 1432h-237v-814l-607 812l-1 2h-94v-1431h237v811l608 -810l1 -2h94l-1 1428v4z"/>
<glyph horiz-adv-x="1540" glyph-name="O" unicode="O" d="M766 1458q-147 0 -280.5 -56.5t-235.5 -160.5q-101 -104 -156.5 -240t-55.5 -285q0 -150 55.5 -285.5t156.5 -240.5q102 -104 235.5 -160.5t280.5 -56.5t280.5 56.5t234.5 160.5q101 105 157 240.5t56 285.5q0 149 -56 285t-157 240t-234.5 160.5t-280.5 56.5zM766 209 q-100 0 -191 40.5t-156.5 108.5t-104.5 161.5t-39 196.5q0 209 145 356q67 71 157 109.5t189 38.5q203 0 346.5 -147.5t143.5 -356.5q0 -210 -144 -358q-68 -70 -158 -109.5t-188 -39.5z"/>
<glyph horiz-adv-x="1012" glyph-name="P" unicode="P" d="M126 1433v-1433h241v355h23q228 4 386 162t158 381q0 225 -161 380t-394 155h-253zM367 1192h12q134 0 224 -84t90 -210q0 -127 -87.5 -213t-218.5 -88h-20v595z"/>
<glyph horiz-adv-x="1563" glyph-name="Q" unicode="Q" d="M1509 721q0 150 -55 285.5t-157 238.5q-101 103 -234.5 160t-278.5 57q-146 0 -279 -56.5t-234 -160.5q-102 -104 -157.5 -239.5t-55.5 -284.5q0 -148 56 -283.5t157 -238.5q102 -104 234.5 -161t278.5 -57q138 0 268 53l82 -119l280 1l-160 242q121 106 188 254t67 309z M930 241q-74 -23 -146 -23q-133 0 -245.5 67.5t-178 183.5t-65.5 252q0 206 144 356q68 70 157.5 109t187.5 39q133 0 245.5 -67.5t178 -183.5t65.5 -253q0 -206 -142 -354l-82 147l-283 1z"/>
<glyph horiz-adv-x="1006" glyph-name="R" unicode="R" d="M915 907q0 107 -41.5 203.5t-117.5 170.5q-160 152 -389 152h-251v-1433h239v370h23q43 1 91 9l223 -379h278l-280 472q107 76 166 190t59 245zM355 1195h12q133 0 221.5 -82.5t88.5 -205.5q0 -125 -86.5 -211t-215.5 -88h-20v587z"/>
<glyph horiz-adv-x="986" glyph-name="S" unicode="S" d="M543 868l-15 8l-8 4l-9 5l-1 1q-94 48 -133 87t-38 96q1 61 47.5 101t121.5 40q15 0 22 -1q38 -4 74 -22t56 -43l2 -4l185 141l3 3l-2 3q-51 68 -131.5 108.5t-163.5 49.5q-28 2 -44 2q-168 0 -285.5 -106t-121.5 -267q-3 -157 110 -270q42 -42 99 -78q37 -22 48 -28 q14 -8 22 -12l9 -6l10 -5q23 -13 29 -15l19 -10q143 -79 189 -128t40 -125q-7 -78 -66.5 -126.5t-149.5 -48.5q-11 0 -29 2h-4v1h-4l-12 3q-21 4 -40 14q-63 28 -101 83l-3 3l-195 -133l2 -4q76 -109 196 -163q41 -20 84 -30l30 -6q2 0 5.5 -0.5t5.5 -1.5q6 0 8 -1 q29 -3 58 -3q178 0 307.5 109t142.5 284q15 180 -103 307q-42 45 -119 96q-26 18 -64 40l-32 17l-32 18z"/>
<glyph horiz-adv-x="903" glyph-name="T" unicode="T" d="M61 1433v-238h277v-1195h238v1195h264v238h-779z"/>
<glyph horiz-adv-x="1167" glyph-name="U" unicode="U" d="M821 461q0 -96 -68.5 -164t-164.5 -68t-164 68t-68 164v972h-240v-972q0 -195 138.5 -333.5t333.5 -138.5t333.5 138.5t138.5 333.5v972h-239v-972z"/>
<glyph horiz-adv-x="1162" glyph-name="V" unicode="V" d="M862 1433l-283 -856l-289 853l-1 3h-249l493 -1430l1 -3h94l485 1428l2 5h-253z"/>
<glyph horiz-adv-x="1719" glyph-name="W" unicode="W" d="M1426 1433l-267 -845l-299 701l-4 9l-283 -705l-283 837l-1 3h-248l459 -1430l1 -3h94l261 683l262 -680l1 -3h96l457 1428l1 5h-247z"/>
<glyph horiz-adv-x="1254" glyph-name="X" unicode="X" d="M921 1433l-292 -482l-284 482h-277l420 -713l-430 -714l-4 -6h275l297 488l286 -488h276l-423 718l429 708l4 7h-277z"/>
<glyph horiz-adv-x="1216" glyph-name="Y" unicode="Y" d="M911 1433l-300 -606l-308 604l-1 2h-264l456 -901v-532h237v533l442 894l3 6h-265z"/>
<glyph horiz-adv-x="1118" glyph-name="Z" unicode="Z" d="M141 1433v-239h553l-636 -1194h967v239h-571l636 1194h-949z"/>
<glyph horiz-adv-x="522" glyph-name="bracketleft" unicode="[" d="M100 1611v-1778h357v245h-112v1287h112v246h-357z"/>
<glyph horiz-adv-x="631" glyph-name="backslash" unicode="\" d="M0 1469l389 -1497h242l-390 1497h-241z"/>
<glyph horiz-adv-x="534" glyph-name="bracketright" unicode="]" d="M90 1611v-246h111v-1287h-111v-245h357v1778h-357z"/>
<glyph horiz-adv-x="1269" glyph-name="asciicircum" unicode="^" d="M579 1439l-479 -600l295 1l237 300l245 -301h300l-495 600h-103z"/>
<glyph horiz-adv-x="844" glyph-name="underscore" unicode="_" d="M100 -225h669v224h-669v-224z"/>
<glyph horiz-adv-x="266" glyph-name="grave" unicode="`" d="M10 1333l120 -211h146l-66 211h-200z"/>
<glyph glyph-name="a" unicode="a" d="M519 1433l-485 -1426l-2 -6h250l64 202h468l64 -199l1 -3h251l-496 1430l-1 2h-114zM578 903l160 -462h-317z"/>
<glyph horiz-adv-x="1081" glyph-name="b" unicode="b" d="M741 874q48 86 48 182q0 154 -113.5 264.5t-274.5 112.5h-285v-1433h435q128 1 236 62.5t171 166.5t63 228q0 135 -76 248.5t-204 168.5zM354 915v282h46q63 -1 108 -42.5t45 -98.5q0 -58 -44.5 -99.5t-107.5 -41.5h-47zM354 677h195q97 0 166.5 -65t69.5 -155t-69 -155 t-166 -66h-196v441z"/>
<glyph horiz-adv-x="1085" glyph-name="c" unicode="c" d="M814 -11q-153 0 -288 54t-235 155q-102 102 -157.5 234t-55.5 281q0 146 56.5 279.5t159.5 235.5q101 102 236 158t284 56q74 0 148 -15l4 -1l-48 -229l-4 1q-55 10 -100 10q-101 0 -193.5 -37.5t-161.5 -107.5q-147 -145 -147 -350q0 -136 66.5 -248.5t181.5 -176.5 t254 -64q50 0 102 11h4l49 -229l-4 -1q-63 -16 -151 -16z"/>
<glyph horiz-adv-x="1151" glyph-name="d" unicode="d" d="M126 1433v-1433h228q155 3 290 58.5t236 154.5t155.5 229t54.5 278q0 147 -55 277.5t-157 227.5q-102 98 -238.5 152t-291.5 56h-222zM852 720q0 -197 -139 -334.5t-349 -146.5v956q213 -9 350.5 -143t137.5 -332z"/>
<glyph horiz-adv-x="956" glyph-name="e" unicode="e" d="M107 1433v-1433h756v238h-518v259h438v240h-438v458h518v238h-756z"/>
<glyph horiz-adv-x="986" glyph-name="f" unicode="f" d="M147 1433v-1433h242v485h406v242h-406v464h523v242h-765z"/>
<glyph horiz-adv-x="1191" glyph-name="g" unicode="g" d="M608 501h251v-276q-28 -3 -56 -3q-205 0 -351 146q-70 69 -108 160t-38 191q0 206 146 352q69 70 160 108t191 38q65 0 144 -21l4 -1l65 231l-4 1q-105 30 -209 30q-149 0 -283.5 -56.5t-237.5 -159.5q-103 -104 -160 -239t-57 -283t57 -283t160 -238t238 -160t283 -57 q80 0 151 16l145 36v709h-491v-241z"/>
<glyph horiz-adv-x="1167" glyph-name="h" unicode="h" d="M803 1433v-697h-439v697h-237v-1433h237v498h439v-498h238v1433h-238z"/>
<glyph horiz-adv-x="481" glyph-name="i" unicode="i" d="M117 0h238v1433h-238v-1433z"/>
<glyph horiz-adv-x="936" glyph-name="j" unicode="j" d="M594 406q0 -77 -55 -131t-132 -54q-54 0 -100 29.5t-69 78.5l-2 4l-213 -98l-4 -1l2 -4q52 -113 157 -180.5t229 -67.5q175 0 299.5 123.5t125.5 299.5v1028h-238v-1027z"/>
<glyph horiz-adv-x="1203" glyph-name="k" unicode="k" d="M810 1433l-435 -604v604h-238v-1433h238v422l131 181l355 -603h277l-481 815l442 611l5 7h-294z"/>
<glyph horiz-adv-x="946" glyph-name="l" unicode="l" d="M127 1433v-1433h753v238h-514v1195h-239z"/>
<glyph horiz-adv-x="1401" glyph-name="m" unicode="m" d="M1194 1434l-496 -823l-486 821l-1 2h-94v-1434h238v697l345 -548l3 -6l348 555v-698h238v1434h-95z"/>
<glyph horiz-adv-x="1157" glyph-name="n" unicode="n" d="M1046 1432h-237v-814l-607 812l-1 2h-94v-1431h237v811l608 -810l1 -2h94l-1 1428v4z"/>
<glyph horiz-adv-x="1540" glyph-name="o" unicode="o" d="M766 1458q-147 0 -280.5 -56.5t-235.5 -160.5q-101 -104 -156.5 -240t-55.5 -285q0 -150 55.5 -285.5t156.5 -240.5q102 -104 235.5 -160.5t280.5 -56.5t280.5 56.5t234.5 160.5q101 105 157 240.5t56 285.5q0 149 -56 285t-157 240t-234.5 160.5t-280.5 56.5zM766 209 q-100 0 -191 40.5t-156.5 108.5t-104.5 161.5t-39 196.5q0 209 145 356q67 71 157 109.5t189 38.5q203 0 346.5 -147.5t143.5 -356.5q0 -210 -144 -358q-68 -70 -158 -109.5t-188 -39.5z"/>
<glyph horiz-adv-x="1012" glyph-name="p" unicode="p" d="M126 1433v-1433h241v355h23q228 4 386 162t158 381q0 225 -161 380t-394 155h-253zM367 1192h12q134 0 224 -84t90 -210q0 -127 -87.5 -213t-218.5 -88h-20v595z"/>
<glyph horiz-adv-x="1563" glyph-name="q" unicode="q" d="M1509 721q0 150 -55 285.5t-157 238.5q-101 103 -234.5 160t-278.5 57q-146 0 -279 -56.5t-234 -160.5q-102 -104 -157.5 -239.5t-55.5 -284.5q0 -148 56 -283.5t157 -238.5q102 -104 234.5 -161t278.5 -57q138 0 268 53l82 -119l280 1l-160 242q121 106 188 254t67 309z M930 241q-74 -23 -146 -23q-133 0 -245.5 67.5t-178 183.5t-65.5 252q0 206 144 356q68 70 157.5 109t187.5 39q133 0 245.5 -67.5t178 -183.5t65.5 -253q0 -206 -142 -354l-82 147l-283 1z"/>
<glyph horiz-adv-x="1006" glyph-name="r" unicode="r" d="M915 907q0 107 -41.5 203.5t-117.5 170.5q-160 152 -389 152h-251v-1433h239v370h23q43 1 91 9l223 -379h278l-280 472q107 76 166 190t59 245zM355 1195h12q133 0 221.5 -82.5t88.5 -205.5q0 -125 -86.5 -211t-215.5 -88h-20v587z"/>
<glyph horiz-adv-x="981" glyph-name="s" unicode="s" d="M540 868l-15 8l-8 4l-9 5l-1 1q-94 48 -133 87t-38 96q1 61 47.5 101t121.5 40q15 0 22 -1q37 -4 73.5 -22t56.5 -43l2 -4l185 141l3 3l-2 3q-52 69 -133 111t-162 47q-28 2 -44 2q-168 0 -286 -106t-121 -267q-3 -157 110 -270q48 -48 99 -78l48 -28q14 -8 22 -12l9 -6 l10 -5q23 -13 29 -15l19 -10q142 -75 189 -125.5t40 -127.5q-7 -78 -66.5 -126.5t-149.5 -48.5q-11 0 -29 2h-4v1h-4l-12 3q-13 3 -40 14q-61 26 -101 83l-3 3l-195 -133l2 -4q72 -103 196 -163q40 -20 84 -30l30 -6q2 0 5.5 -0.5t5.5 -1.5q6 0 8 -1q29 -3 58 -3 q178 0 306.5 108.5t143.5 284.5q15 180 -103 307q-38 40 -119 96q-41 28 -64 40l-32 17l-32 18z"/>
<glyph horiz-adv-x="903" glyph-name="t" unicode="t" d="M61 1433v-238h277v-1195h238v1195h264v238h-779z"/>
<glyph horiz-adv-x="1167" glyph-name="u" unicode="u" d="M821 461q0 -96 -68.5 -164t-164.5 -68t-164 68t-68 164v972h-240v-972q0 -195 138.5 -333.5t333.5 -138.5t333.5 138.5t138.5 333.5v972h-239v-972z"/>
<glyph horiz-adv-x="1162" glyph-name="v" unicode="v" d="M862 1433l-283 -856l-289 853l-1 3h-249l493 -1430l1 -3h94l485 1428l2 5h-253z"/>
<glyph horiz-adv-x="1719" glyph-name="w" unicode="w" d="M1426 1433l-267 -845l-299 701l-4 9l-283 -705l-283 837l-1 3h-248l459 -1430l1 -3h94l261 683l262 -680l1 -3h96l457 1428l1 5h-247z"/>
<glyph horiz-adv-x="1254" glyph-name="x" unicode="x" d="M921 1433l-292 -482l-284 482h-277l420 -713l-430 -714l-4 -6h275l297 488l286 -488h276l-423 718l429 708l4 7h-277z"/>
<glyph horiz-adv-x="1216" glyph-name="y" unicode="y" d="M911 1433l-300 -606l-308 604l-1 2h-264l456 -901v-532h237v533l442 894l3 6h-265z"/>
<glyph horiz-adv-x="1118" glyph-name="z" unicode="z" d="M141 1433v-239h553l-636 -1194h967v239h-571l636 1194h-949z"/>
<glyph horiz-adv-x="620" glyph-name="braceleft" unicode="{" d="M579 1581h-66q-4 0 -7 -1q-6 0 -20 -2q-26 -3 -56 -11q-82 -24 -138 -84q-109 -115 -90 -322q4 -45 12 -94q1 -9 8 -40l3 -19l4 -17q12 -68 13 -78q1 -18 -7 -31q-17 -26 -86 -46l-89 -25v-194l89 -25q24 -6 51.5 -21t34.5 -26q8 -12 7 -30q-2 -23 -13 -78l-4 -17l-3 -19 q-7 -31 -8 -40q-8 -50 -12 -94q-19 -208 90 -323q54 -57 135 -83q29 -7 57 -12q26 -2 34 -2h51v243h-57l-12 3q-22 6 -32 19q-33 36 -24 133q3 40 10 77l6 35l4 16l3 15l7 36l6 35q6 42 5 72q-1 81 -47 149q-16 22 -27 34q11 13 27 34q46 68 47 149q1 29 -5 72l-6 35l-7 35 l-3 16l-4 16l-6 35q-6 35 -8 51t-4.5 52.5t4.5 62.5t22 43q10 13 28 19l12 3q3 0 4 1h67v243z"/>
<glyph horiz-adv-x="445" glyph-name="bar" unicode="|" d="M100 -190h236v1827h-236v-1827z"/>
<glyph horiz-adv-x="676" glyph-name="braceright" unicode="}" d="M147 1338q1 -1 4 -1l12 -3q18 -6 28 -19q15 -17 22 -43t4.5 -62.5t-4.5 -52.5t-8 -51l-6 -35l-4 -16l-3 -16l-7 -35l-6 -35q-5 -45 -5 -72q1 -81 47 -149q16 -21 27 -34q-11 -12 -27 -34q-46 -68 -47 -149q0 -29 5 -72l6 -35l7 -36l3 -15l4 -16l6 -35q7 -37 10 -77 q9 -97 -24 -133q-10 -13 -32 -19l-12 -3h-67v-243h61q8 0 34 2q29 5 57 12q81 26 135 83q109 115 90 323q-4 44 -12 94q-1 9 -8 40l-3 19l-4 17q-11 55 -13 78q-1 19 7 30t35 26q29 15 51 21l89 25v194l-89 25q-69 20 -86 46q-8 13 -7 31q1 10 13 78l4 17l3 19q7 31 8 40 q8 49 12 94q19 207 -90 322q-55 60 -138 84q-30 8 -56 11q-14 2 -20 2q-3 1 -7 1h-66v-243h67z"/>
<glyph horiz-adv-x="1078" glyph-name="asciitilde" unicode="~" d="M355 533q-105 0 -204 47q-33 17 -58 34l-16 12q-3 3 -5 4l-2 2l74 84l73 85l1 -1l2 -1q3 -3 5 -4q8 -7 17 -11q27 -14 57 -21q93 -21 193 31q169 89 329 47q117 -30 192 -114l-170 -146l-4 4q-3 3 -5 4l-15 12q-24 16 -49 23q-78 22 -174 -28q-120 -63 -241 -63z"/>
<glyph horiz-adv-x="462" glyph-name="exclamdown" unicode="¡" d="M252 740q58 0 99 42t41 101q0 60 -41 102t-99 42t-99 -42t-41 -102q0 -59 41 -101t99 -42zM132 626h237v-1037h-237v1037z"/>
<glyph horiz-adv-x="1055" glyph-name="cent" unicode="¢" d="M924 235l-4 -1q-53 -11 -104 -11h-10l-9 1v994l9 1h10q55 0 102 -10l4 -1l48 233l-4 1q-74 15 -150 15h-10l-9 -1v116h-169v-139q-161 -42 -288 -146t-198.5 -253t-71.5 -316q0 -257 155.5 -453.5t402.5 -256.5v-138h169v116h19q77 0 152 15l4 1zM308 718q0 155 88 282 t232 184v-927q-145 54 -232.5 179.5t-87.5 281.5z"/>
<glyph horiz-adv-x="982" glyph-name="sterling" unicode="£" d="M104 276v-276h807v232h-526q137 182 117 374h174v166h-225q-11 22 -29 49q-52 78 -63.5 167t22.5 152q41 77 144 77q99 0 131 -90l219 77q-40 115 -133 180t-217 65q-116 0 -207 -52t-142 -147q-54 -102 -51.5 -230t60.5 -248h-95v-166h176q21 -96 -42 -199 q-16 -29 -49 -65q-12 -14 -19 -21q-3 -2 -7 -6l-5 -5z"/>
<glyph horiz-adv-x="1213" glyph-name="yen" unicode="¥" d="M911 1432l-300 -606l-306 603l-1 3h-264l421 -833h-148v-151h181v-95h-181v-150h181v-201h237v201h172v150h-172v95h172v151h-140l410 827l3 6h-265z"/>
<glyph horiz-adv-x="0" glyph-name="brokenbar" unicode="¦" d="M102 647h236v786h-236v-786zM102 -409h236v786h-236v-786z"/>
<glyph horiz-adv-x="348" glyph-name="dieresis" unicode="¨" d="M147 1172q0 -32 -21.5 -54t-52.5 -22q-30 0 -51.5 22t-21.5 54t21.5 54t51.5 22q31 0 52.5 -22t21.5 -54zM348 1172q0 -32 -21.5 -54t-51.5 -22q-31 0 -52 23q-22 21 -22 53t22 53q21 23 52 23q30 0 51.5 -22t21.5 -54z"/>
<glyph horiz-adv-x="1606" glyph-name="copyright" unicode="©" d="M786 1449q-145 0 -275.5 -56t-231.5 -158q-100 -103 -155 -237t-55 -280q0 -148 55 -281.5t155 -235.5q101 -103 231.5 -159t275.5 -56t275.5 56t231.5 159q100 102 155 235.5t55 281.5q0 146 -55 280t-155 237q-101 102 -231.5 158t-275.5 56zM786 216q-132 0 -244 67 t-177.5 183t-65.5 252q0 206 143 354q67 70 156.5 108.5t187.5 38.5q132 0 244 -67t177.5 -182.5t65.5 -251.5q0 -207 -143 -355q-145 -147 -344 -147zM833 499q-90 0 -154 64t-64 155q0 90 64 154t154 64q21 0 44 -5l37 180q-43 8 -81 8q-166 0 -284 -117.5t-118 -283.5 q0 -167 118 -284.5t284 -117.5q39 0 82 8l-37 180q-25 -5 -45 -5z"/>
<glyph horiz-adv-x="1325" glyph-name="guillemotleft" unicode="«" d="M100 764v-101l617 -428v212l-382 265l381 256v210zM609 764v-101l617 -428v212l-382 265l381 256v210z"/>
<glyph horiz-adv-x="1619" glyph-name="registered" unicode="®" d="M817 1449q-145 0 -275.5 -56t-231.5 -158q-100 -103 -155 -237t-55 -280q0 -148 55 -281.5t155 -235.5q101 -103 231.5 -159t275.5 -56t275.5 56t231.5 159q100 102 155 235.5t55 281.5q0 146 -55 280t-155 237q-101 102 -231.5 158t-275.5 56zM817 216q-132 0 -244 67 t-177.5 183t-65.5 252q0 206 143 354q67 70 156.5 108.5t187.5 38.5q132 0 244 -67t177.5 -182.5t65.5 -251.5q0 -207 -143 -355q-145 -147 -344 -147zM1067 821q0 121 -85.5 207t-206.5 86h-147v-730h165v145l10 1l9 1l86 -147h193l-127 215q103 89 103 222zM793 947 q48 -8 77 -43q32 -35 32 -83q0 -47 -31.5 -83t-77.5 -42v251z"/>
<glyph horiz-adv-x="708" glyph-name="macron" unicode="¯" d="M0 1310h708v165h-708v-165z"/>
<glyph horiz-adv-x="616" glyph-name="plusminus" unicode="±" d="M290 1091v-188h-188v-221h188v-188h221v188h188v221h-188v188h-221zM109 164h587v218h-587v-218z"/>
<glyph horiz-adv-x="266" glyph-name="acute" unicode="´" d="M66 1333l-66 -211h146l120 211h-200z"/>
<glyph horiz-adv-x="1024" glyph-name="paragraph" unicode="¶"/>
<glyph horiz-adv-x="508" glyph-name="periodcentered" unicode="·"/>
<glyph horiz-adv-x="412" glyph-name="cedilla" unicode="¸" d="M333 -383q-41 -33 -117.5 -31t-123.5 40q-62 42 -87 108l-5 13l122 65l6 -18q14 -31 38.5 -47.5t52.5 -16.5h8q2 0 7 0.5t7 1.5q17 5 22 17q7 18 -14.5 42.5t-55.5 39.5l-72 33l66 159l140 -1l-37 -102q73 -40 98.5 -101t6.5 -121q-23 -56 -62 -81z"/>
<glyph horiz-adv-x="1319" glyph-name="guillemotright" unicode="»" d="M101 1178v-210l381 -256l-382 -265v-212l617 428v101zM610 1178v-210l381 -256l-382 -265v-212l617 428v101z"/>
<glyph horiz-adv-x="933" glyph-name="questiondown" unicode="¿" d="M518 741q58 0 99.5 42.5t41.5 101.5q0 60 -41.5 102t-99.5 42t-99 -42t-41 -102q0 -59 41 -101.5t99 -42.5zM76 -73q16 -114 84.5 -198t164 -122.5t200.5 -29.5q81 8 155 40q120 53 202 156l-186 148q-46 -57 -109 -86q-39 -16 -82 -22q-60 -2 -108 23q-47 24 -69.5 69 t-20 88.5t22.5 75.5q20 33 96 102l53 49q21 21 51 55q53 63 76.5 126t30.5 143l3 49v24l-237 -1q0 -33 -3 -54q-5 -46 -13 -69q-20 -55 -120 -146l-18 -17l-19 -17l-37 -37q-43 -45 -69 -90q-71 -116 -48 -259z"/>
<glyph glyph-name="Agrave" unicode="À" d="M391 1732l120 -211h146l-66 211h-200zM519 1433l-485 -1426l-2 -6h250l64 202h468l64 -199l1 -3h251l-496 1430l-1 2h-114zM578 903l160 -462h-317z"/>
<glyph glyph-name="Aacute" unicode="Á" d="M572 1732l-66 -211h146l120 211h-200zM519 1433l-485 -1426l-2 -6h250l64 202h468l64 -199l1 -3h251l-496 1430l-1 2h-114zM578 903l160 -462h-317z"/>
<glyph glyph-name="Acircumflex" unicode="Â" d="M495 1748l-145 -235h153l73 118l78 -118h153l-150 235h-162zM519 1433l-485 -1426l-2 -6h250l64 202h468l64 -199l1 -3h251l-496 1430l-1 2h-114zM578 903l160 -462h-317z"/>
<glyph glyph-name="Atilde" unicode="Ã" d="M784 1629q-45 59 -126 59q-48 0 -96 -27q-25 -14 -47 -14q-18 0 -32 7l-8 6q-2 0 -3 1v1h-1l-20 19l-77 -101l20 -19q50 -46 121 -46q52 0 102 29q22 12 41 12q14 0 28 -8q3 -1 7 -5l3 -3l17 -22l88 89zM519 1433l-485 -1426l-2 -6h250l64 202h468l64 -199l1 -3h251 l-496 1430l-1 2h-114zM578 903l160 -462h-317z"/>
<glyph glyph-name="Adieresis" unicode="Ä" d="M552 1581q0 -32 -21.5 -54t-52.5 -22q-30 0 -51.5 22t-21.5 54t21.5 54t51.5 22q31 0 52.5 -22t21.5 -54zM753 1581q0 -32 -21.5 -54t-51.5 -22q-31 0 -52 23q-22 21 -22 53t22 53q21 23 52 23q30 0 51.5 -22t21.5 -54zM519 1433l-485 -1426l-2 -6h250l64 202h468 l64 -199l1 -3h251l-496 1430l-1 2h-114zM578 903l160 -462h-317z"/>
<glyph glyph-name="Aring" unicode="Å" d="M1130 1h-251l-1 3l-64 199h-468l-64 -202h-250l2 6l484 1424q-48 18 -78.5 62t-30.5 99q0 70 49 120t118 50q70 0 119 -50t49 -120q0 -55 -30.5 -99t-79.5 -62zM576 1642q-20 0 -34.5 -15t-14.5 -36q0 -20 14.5 -35t34.5 -15t34 15t14 35q0 21 -14 36t-34 15zM738 441 l-160 462l-157 -462h317z"/>
<glyph horiz-adv-x="1633" glyph-name="AE" unicode="Æ" d="M583 1432l-563 -1430h260l81 208h426v-209h746v230h-516v276h437v229h-437v467h516v229h-950zM747 1191h40v-740h-331z"/>
<glyph horiz-adv-x="1079" glyph-name="Ccedilla" unicode="Ç" d="M78 713q0 146 56.5 279.5t159.5 235.5q101 102 236 158t284 56q74 0 148 -15l4 -1l-48 -229l-4 1q-55 10 -100 10q-101 0 -193.5 -37.5t-161.5 -107.5q-147 -145 -147 -350q0 -136 66.5 -248.5t181.5 -176.5t254 -64q50 0 102 11h4l49 -229l-4 -1q-63 -16 -151 -16l-35 1 l-25 -70q73 -40 98.5 -101t6.5 -121q-23 -56 -62 -81q-41 -33 -117.5 -31t-123.5 40q-62 42 -87 108l-5 13l122 65l6 -18q14 -31 38.5 -47.5t52.5 -16.5h8q2 0 7 0.5t7 1.5q17 5 22 17q7 18 -14.5 42.5t-55.5 39.5l-72 33l59 143q-210 46 -353 191q-102 102 -157.5 234 t-55.5 281z"/>
<glyph horiz-adv-x="956" glyph-name="Egrave" unicode="È" d="M338 1729l120 -211h146l-66 211h-200zM107 1433v-1433h756v238h-518v259h438v240h-438v458h518v238h-756z"/>
<glyph horiz-adv-x="956" glyph-name="Eacute" unicode="É" d="M466 1733l-66 -211h146l120 211h-200zM107 1433v-1433h756v238h-518v259h438v240h-438v458h518v238h-756z"/>
<glyph horiz-adv-x="956" glyph-name="Ecircumflex" unicode="Ê" d="M410 1745l-145 -235h153l73 118l78 -118h153l-150 235h-162zM107 1433v-1433h756v238h-518v259h438v240h-438v458h518v238h-756z"/>
<glyph horiz-adv-x="956" glyph-name="Edieresis" unicode="Ë" d="M466 1581q0 -32 -21.5 -54t-52.5 -22q-30 0 -51.5 22t-21.5 54t21.5 54t51.5 22q31 0 52.5 -22t21.5 -54zM667 1581q0 -32 -21.5 -54t-51.5 -22q-31 0 -52 23q-22 21 -22 53t22 53q21 23 52 23q30 0 51.5 -22t21.5 -54zM107 1433v-1433h756v238h-518v259h438v240h-438 v458h518v238h-756z"/>
<glyph horiz-adv-x="481" glyph-name="Igrave" unicode="Ì" d="M57 1742l120 -211h146l-66 211h-200zM117 0h238v1433h-238v-1433z"/>
<glyph horiz-adv-x="481" glyph-name="Iacute" unicode="Í" d="M234 1742l-66 -211h146l120 211h-200zM117 0h238v1433h-238v-1433z"/>
<glyph horiz-adv-x="481" glyph-name="Icircumflex" unicode="Î" d="M155 1768l-145 -235h153l73 118l78 -118h153l-150 235h-162zM117 0h238v1433h-238v-1433z"/>
<glyph horiz-adv-x="481" glyph-name="Idieresis" unicode="Ï" d="M211 1581q0 -32 -21.5 -54t-52.5 -22q-30 0 -51.5 22t-21.5 54t21.5 54t51.5 22q31 0 52.5 -22t21.5 -54zM412 1581q0 -32 -21.5 -54t-51.5 -22q-31 0 -52 23q-22 21 -22 53t22 53q21 23 52 23q30 0 51.5 -22t21.5 -54zM117 0h238v1433h-238v-1433z"/>
<glyph horiz-adv-x="1227" glyph-name="Eth" unicode="Ð" d="M958 1225q102 -99 157.5 -229t55.5 -276t-55 -277t-156 -230t-236 -154.5t-289 -58.5h-226v616h-169v179h169v638h220q155 -2 291 -56t238 -152zM440 232q214 8 356.5 147t142.5 341q0 203 -140.5 338.5t-358.5 143.5v-407h196v-179h-196v-384z"/>
<glyph horiz-adv-x="1157" glyph-name="Ntilde" unicode="Ñ" d="M767 1629q-45 59 -126 59q-48 0 -96 -27q-25 -14 -47 -14q-18 0 -32 7l-8 6q-2 0 -3 1v1h-1l-20 19l-77 -101l20 -19q50 -46 121 -46q52 0 102 29q22 12 41 12q14 0 28 -8q3 -1 7 -5l3 -3l17 -22l88 89zM1046 1432h-237v-814l-607 812l-1 2h-94v-1431h237v811l608 -810 l1 -2h94l-1 1428v4z"/>
<glyph horiz-adv-x="1540" glyph-name="Ograve" unicode="Ò" d="M583 1732l120 -211h146l-66 211h-200zM766 1458q-147 0 -280.5 -56.5t-235.5 -160.5q-101 -104 -156.5 -240t-55.5 -285q0 -150 55.5 -285.5t156.5 -240.5q102 -104 235.5 -160.5t280.5 -56.5t280.5 56.5t234.5 160.5q101 105 157 240.5t56 285.5q0 149 -56 285t-157 240 t-234.5 160.5t-280.5 56.5zM766 209q-100 0 -191 40.5t-156.5 108.5t-104.5 161.5t-39 196.5q0 209 145 356q67 71 157 109.5t189 38.5q203 0 346.5 -147.5t143.5 -356.5q0 -210 -144 -358q-68 -70 -158 -109.5t-188 -39.5z"/>
<glyph horiz-adv-x="1540" glyph-name="Oacute" unicode="Ó" d="M738 1732l-66 -211h146l120 211h-200zM766 1458q-147 0 -280.5 -56.5t-235.5 -160.5q-101 -104 -156.5 -240t-55.5 -285q0 -150 55.5 -285.5t156.5 -240.5q102 -104 235.5 -160.5t280.5 -56.5t280.5 56.5t234.5 160.5q101 105 157 240.5t56 285.5q0 149 -56 285t-157 240 t-234.5 160.5t-280.5 56.5zM766 209q-100 0 -191 40.5t-156.5 108.5t-104.5 161.5t-39 196.5q0 209 145 356q67 71 157 109.5t189 38.5q203 0 346.5 -147.5t143.5 -356.5q0 -210 -144 -358q-68 -70 -158 -109.5t-188 -39.5z"/>
<glyph horiz-adv-x="1540" glyph-name="Ocircumflex" unicode="Ô" d="M674 1751l-145 -235h153l73 118l78 -118h153l-150 235h-162zM766 1458q-147 0 -280.5 -56.5t-235.5 -160.5q-101 -104 -156.5 -240t-55.5 -285q0 -150 55.5 -285.5t156.5 -240.5q102 -104 235.5 -160.5t280.5 -56.5t280.5 56.5t234.5 160.5q101 105 157 240.5t56 285.5 q0 149 -56 285t-157 240t-234.5 160.5t-280.5 56.5zM766 209q-100 0 -191 40.5t-156.5 108.5t-104.5 161.5t-39 196.5q0 209 145 356q67 71 157 109.5t189 38.5q203 0 346.5 -147.5t143.5 -356.5q0 -210 -144 -358q-68 -70 -158 -109.5t-188 -39.5z"/>
<glyph horiz-adv-x="1540" glyph-name="Otilde" unicode="Õ" d="M972 1639q-45 59 -126 59q-48 0 -96 -27q-25 -14 -47 -14q-18 0 -32 7l-8 6q-2 0 -3 1v1h-1l-20 19l-77 -101l20 -19q50 -46 121 -46q52 0 102 29q22 12 41 12q14 0 28 -8q3 -1 7 -5l3 -3l17 -22l88 89zM766 1458q-147 0 -280.5 -56.5t-235.5 -160.5 q-101 -104 -156.5 -240t-55.5 -285q0 -150 55.5 -285.5t156.5 -240.5q102 -104 235.5 -160.5t280.5 -56.5t280.5 56.5t234.5 160.5q101 105 157 240.5t56 285.5q0 149 -56 285t-157 240t-234.5 160.5t-280.5 56.5zM766 209q-100 0 -191 40.5t-156.5 108.5t-104.5 161.5 t-39 196.5q0 209 145 356q67 71 157 109.5t189 38.5q203 0 346.5 -147.5t143.5 -356.5q0 -210 -144 -358q-68 -70 -158 -109.5t-188 -39.5z"/>
<glyph horiz-adv-x="1540" glyph-name="Odieresis" unicode="Ö" d="M741 1581q0 -32 -21.5 -54t-52.5 -22q-30 0 -51.5 22t-21.5 54t21.5 54t51.5 22q31 0 52.5 -22t21.5 -54zM942 1581q0 -32 -21.5 -54t-51.5 -22q-31 0 -52 23q-22 21 -22 53t22 53q21 23 52 23q30 0 51.5 -22t21.5 -54zM766 1458q-147 0 -280.5 -56.5t-235.5 -160.5 q-101 -104 -156.5 -240t-55.5 -285q0 -150 55.5 -285.5t156.5 -240.5q102 -104 235.5 -160.5t280.5 -56.5t280.5 56.5t234.5 160.5q101 105 157 240.5t56 285.5q0 149 -56 285t-157 240t-234.5 160.5t-280.5 56.5zM766 209q-100 0 -191 40.5t-156.5 108.5t-104.5 161.5 t-39 196.5q0 209 145 356q67 71 157 109.5t189 38.5q203 0 346.5 -147.5t143.5 -356.5q0 -210 -144 -358q-68 -70 -158 -109.5t-188 -39.5z"/>
<glyph horiz-adv-x="1536" glyph-name="Oslash" unicode="Ø" d="M1133 1531h-247l-27 -90q-46 7 -97 7q-145 0 -276 -56t-231 -158q-100 -103 -155 -236.5t-55 -281.5q0 -208 107 -383.5t286 -268.5l-47 -155h248l25 82q50 -6 98 -6q145 0 275.5 56t231.5 158q100 103 155 237t55 280q0 209 -107.5 385t-287.5 269zM279 716 q0 207 141 352q67 70 156 108t186 38h14l13 -1l-281 -919q-106 67 -167.5 179.5t-61.5 242.5zM748 219l-14 1l280 920q107 -67 169 -180t62 -244q0 -206 -142 -351q-67 -70 -155.5 -108t-185.5 -38h-14z"/>
<glyph horiz-adv-x="1167" glyph-name="Ugrave" unicode="Ù" d="M419 1725l120 -211h146l-66 211h-200zM821 461q0 -96 -68.5 -164t-164.5 -68t-164 68t-68 164v972h-240v-972q0 -195 138.5 -333.5t333.5 -138.5t333.5 138.5t138.5 333.5v972h-239v-972z"/>
<glyph horiz-adv-x="1167" glyph-name="Uacute" unicode="Ú" d="M570 1726l-66 -211h146l120 211h-200zM821 461q0 -96 -68.5 -164t-164.5 -68t-164 68t-68 164v972h-240v-972q0 -195 138.5 -333.5t333.5 -138.5t333.5 138.5t138.5 333.5v972h-239v-972z"/>
<glyph horiz-adv-x="1167" glyph-name="Ucircumflex" unicode="Û" d="M504 1741l-145 -235h153l73 118l78 -118h153l-150 235h-162zM821 461q0 -96 -68.5 -164t-164.5 -68t-164 68t-68 164v972h-240v-972q0 -195 138.5 -333.5t333.5 -138.5t333.5 138.5t138.5 333.5v972h-239v-972z"/>
<glyph horiz-adv-x="1167" glyph-name="Udieresis" unicode="Ü" d="M570 1574q0 -32 -21.5 -54t-52.5 -22q-30 0 -51.5 22t-21.5 54t21.5 54t51.5 22q31 0 52.5 -22t21.5 -54zM771 1574q0 -32 -21.5 -54t-51.5 -22q-31 0 -52 23q-22 21 -22 53t22 53q21 23 52 23q30 0 51.5 -22t21.5 -54zM821 461q0 -96 -68.5 -164t-164.5 -68t-164 68 t-68 164v972h-240v-972q0 -195 138.5 -333.5t333.5 -138.5t333.5 138.5t138.5 333.5v972h-239v-972z"/>
<glyph horiz-adv-x="1216" glyph-name="Yacute" unicode="Ý" d="M589 1709l-66 -211h146l120 211h-200zM911 1433l-300 -606l-308 604l-1 2h-264l456 -901v-532h237v533l442 894l3 6h-265z"/>
<glyph horiz-adv-x="997" glyph-name="Thorn" unicode="Þ" d="M360 -228v355h23q228 4 386 162t158 381q0 225 -161 380t-394 155h-15v207h-238v-1640h241zM360 964h12q134 0 224 -84t90 -210q0 -127 -87.5 -213t-218.5 -88h-20v595z"/>
<glyph horiz-adv-x="1100" glyph-name="germandbls" unicode="ß" d="M394 0v235h162q102 0 168 45.5t66 132.5q0 68 -26.5 98t-112.5 65l-32 14l-36 17q-46 26 -70 47q-78 69 -78 176q0 50 25 99q8 17 23 39l13 18l12 16q29 38 39 58t10 47q0 54 -56 77q-35 16 -99 18h-48v-1203h-235v1269q0 70 49.5 119t118.5 49h116q174 -1 281.5 -92 t107.5 -237q0 -81 -34 -150q-16 -32 -32 -54q-10 -16 -16 -24l-8 -10l-7 -10l-7 -8l-6 -9l-11 -16q11 -8 52 -26l10 -4l9 -4l10 -4l11 -5l22 -9q8 -4 15.5 -8t16.5 -8.5t14 -6.5q54 -30 91 -67q103 -100 103 -271q0 -182 -131 -297.5t-338 -115.5h-162z"/>
<glyph glyph-name="agrave" unicode="à" d="M391 1732l120 -211h146l-66 211h-200zM519 1433l-485 -1426l-2 -6h250l64 202h468l64 -199l1 -3h251l-496 1430l-1 2h-114zM578 903l160 -462h-317z"/>
<glyph glyph-name="aacute" unicode="á" d="M572 1732l-66 -211h146l120 211h-200zM519 1433l-485 -1426l-2 -6h250l64 202h468l64 -199l1 -3h251l-496 1430l-1 2h-114zM578 903l160 -462h-317z"/>
<glyph glyph-name="acircumflex" unicode="â" d="M495 1748l-145 -235h153l73 118l78 -118h153l-150 235h-162zM519 1433l-485 -1426l-2 -6h250l64 202h468l64 -199l1 -3h251l-496 1430l-1 2h-114zM578 903l160 -462h-317z"/>
<glyph glyph-name="atilde" unicode="ã" d="M784 1629q-45 59 -126 59q-48 0 -96 -27q-25 -14 -47 -14q-18 0 -32 7l-8 6q-2 0 -3 1v1h-1l-20 19l-77 -101l20 -19q50 -46 121 -46q52 0 102 29q22 12 41 12q14 0 28 -8q3 -1 7 -5l3 -3l17 -22l88 89zM519 1433l-485 -1426l-2 -6h250l64 202h468l64 -199l1 -3h251 l-496 1430l-1 2h-114zM578 903l160 -462h-317z"/>
<glyph glyph-name="adieresis" unicode="ä" d="M552 1581q0 -32 -21.5 -54t-52.5 -22q-30 0 -51.5 22t-21.5 54t21.5 54t51.5 22q31 0 52.5 -22t21.5 -54zM753 1581q0 -32 -21.5 -54t-51.5 -22q-31 0 -52 23q-22 21 -22 53t22 53q21 23 52 23q30 0 51.5 -22t21.5 -54zM519 1433l-485 -1426l-2 -6h250l64 202h468 l64 -199l1 -3h251l-496 1430l-1 2h-114zM578 903l160 -462h-317z"/>
<glyph glyph-name="aring" unicode="å" d="M1130 1h-251l-1 3l-64 199h-468l-64 -202h-250l2 6l484 1424q-48 18 -78.5 62t-30.5 99q0 70 49 120t118 50q70 0 119 -50t49 -120q0 -55 -30.5 -99t-79.5 -62zM576 1642q-20 0 -34.5 -15t-14.5 -36q0 -20 14.5 -35t34.5 -15t34 15t14 35q0 21 -14 36t-34 15zM738 441 l-160 462l-157 -462h317z"/>
<glyph horiz-adv-x="1633" glyph-name="ae" unicode="æ" d="M583 1432l-563 -1430h260l81 208h426v-209h746v230h-516v276h437v229h-437v467h516v229h-950zM747 1191h40v-740h-331z"/>
<glyph horiz-adv-x="1079" glyph-name="ccedilla" unicode="ç" d="M78 713q0 146 56.5 279.5t159.5 235.5q101 102 236 158t284 56q74 0 148 -15l4 -1l-48 -229l-4 1q-55 10 -100 10q-101 0 -193.5 -37.5t-161.5 -107.5q-147 -145 -147 -350q0 -136 66.5 -248.5t181.5 -176.5t254 -64q50 0 102 11h4l49 -229l-4 -1q-63 -16 -151 -16l-35 1 l-25 -70q73 -40 98.5 -101t6.5 -121q-23 -56 -62 -81q-41 -33 -117.5 -31t-123.5 40q-62 42 -87 108l-5 13l122 65l6 -18q14 -31 38.5 -47.5t52.5 -16.5h8q2 0 7 0.5t7 1.5q17 5 22 17q7 18 -14.5 42.5t-55.5 39.5l-72 33l59 143q-210 46 -353 191q-102 102 -157.5 234 t-55.5 281z"/>
<glyph horiz-adv-x="956" glyph-name="egrave" unicode="è" d="M338 1729l120 -211h146l-66 211h-200zM107 1432v-1432h755v238h-517v259h438v239h-438v458h517v238h-755z"/>
<glyph horiz-adv-x="956" glyph-name="eacute" unicode="é" d="M466 1733l-66 -211h146l120 211h-200zM107 1432v-1432h755v238h-517v259h438v239h-438v458h517v238h-755z"/>
<glyph horiz-adv-x="956" glyph-name="ecircumflex" unicode="ê" d="M410 1745l-145 -235h153l73 118l78 -118h153l-150 235h-162zM107 1432v-1432h755v238h-517v259h438v239h-438v458h517v238h-755z"/>
<glyph horiz-adv-x="956" glyph-name="edieresis" unicode="ë" d="M466 1581q0 -32 -21.5 -54t-52.5 -22q-30 0 -51.5 22t-21.5 54t21.5 54t51.5 22q31 0 52.5 -22t21.5 -54zM667 1581q0 -32 -21.5 -54t-51.5 -22q-31 0 -52 23q-22 21 -22 53t22 53q21 23 52 23q30 0 51.5 -22t21.5 -54zM107 1432v-1432h755v238h-517v259h438v239h-438 v458h517v238h-755z"/>
<glyph horiz-adv-x="481" glyph-name="igrave" unicode="ì" d="M57 1742l120 -211h146l-66 211h-200zM117 0h239v1439h-239v-1439z"/>
<glyph horiz-adv-x="481" glyph-name="iacute" unicode="í" d="M234 1742l-66 -211h146l120 211h-200zM117 0h239v1439h-239v-1439z"/>
<glyph horiz-adv-x="481" glyph-name="icircumflex" unicode="î" d="M166 1768l-145 -235h153l73 118l78 -118h153l-150 235h-162zM128 0h239v1439h-239v-1439z"/>
<glyph horiz-adv-x="481" glyph-name="idieresis" unicode="ï" d="M211 1581q0 -32 -21.5 -54t-52.5 -22q-30 0 -51.5 22t-21.5 54t21.5 54t51.5 22q31 0 52.5 -22t21.5 -54zM412 1581q0 -32 -21.5 -54t-51.5 -22q-31 0 -52 23q-22 21 -22 53t22 53q21 23 52 23q30 0 51.5 -22t21.5 -54zM117 0h239v1439h-239v-1439z"/>
<glyph horiz-adv-x="1227" glyph-name="eth" unicode="ð" d="M958 1225q102 -99 157.5 -229t55.5 -276t-55 -277t-156 -230t-236 -154.5t-289 -58.5h-226v616h-169v179h169v638h220q155 -2 291 -56t238 -152zM440 232q214 8 356.5 147t142.5 341q0 203 -140.5 338.5t-358.5 143.5v-407h196v-179h-196v-384z"/>
<glyph horiz-adv-x="1157" glyph-name="ntilde" unicode="ñ" d="M767 1629q-45 59 -126 59q-48 0 -96 -27q-25 -14 -47 -14q-18 0 -32 7l-8 6q-2 0 -3 1v1h-1l-20 19l-77 -101l20 -19q50 -46 121 -46q52 0 102 29q22 12 41 12q14 0 28 -8q3 -1 7 -5l3 -3l17 -22l88 89zM1046 1432h-237v-814l-607 809l-1 2h-94v-1428h237v811l608 -810 l1 -2h94l-1 1428v4z"/>
<glyph horiz-adv-x="1540" glyph-name="ograve" unicode="ò" d="M583 1732l120 -211h146l-66 211h-200zM766 1458q-147 0 -280.5 -56.5t-235.5 -160.5q-101 -104 -156.5 -240t-55.5 -285q0 -150 55.5 -285.5t156.5 -240.5q102 -104 235.5 -160.5t280.5 -56.5t280.5 56.5t234.5 160.5q101 105 157 240.5t56 285.5q0 149 -56 285t-157 240 t-234.5 160.5t-280.5 56.5zM766 209q-100 0 -191 40.5t-156.5 108.5t-104.5 161.5t-39 196.5q0 209 145 356q67 71 157 109.5t189 38.5q203 0 346.5 -147.5t143.5 -356.5q0 -210 -144 -358q-68 -70 -158 -109.5t-188 -39.5z"/>
<glyph horiz-adv-x="1540" glyph-name="oacute" unicode="ó" d="M738 1732l-66 -211h146l120 211h-200zM766 1458q-147 0 -280.5 -56.5t-235.5 -160.5q-101 -104 -156.5 -240t-55.5 -285q0 -150 55.5 -285.5t156.5 -240.5q102 -104 235.5 -160.5t280.5 -56.5t280.5 56.5t234.5 160.5q101 105 157 240.5t56 285.5q0 149 -56 285t-157 240 t-234.5 160.5t-280.5 56.5zM766 209q-100 0 -191 40.5t-156.5 108.5t-104.5 161.5t-39 196.5q0 209 145 356q67 71 157 109.5t189 38.5q203 0 346.5 -147.5t143.5 -356.5q0 -210 -144 -358q-68 -70 -158 -109.5t-188 -39.5z"/>
<glyph horiz-adv-x="1540" glyph-name="ocircumflex" unicode="ô" d="M674 1751l-145 -235h153l73 118l78 -118h153l-150 235h-162zM766 1458q-147 0 -280.5 -56.5t-235.5 -160.5q-101 -104 -156.5 -240t-55.5 -285q0 -150 55.5 -285.5t156.5 -240.5q102 -104 235.5 -160.5t280.5 -56.5t280.5 56.5t234.5 160.5q101 105 157 240.5t56 285.5 q0 149 -56 285t-157 240t-234.5 160.5t-280.5 56.5zM766 209q-100 0 -191 40.5t-156.5 108.5t-104.5 161.5t-39 196.5q0 209 145 356q67 71 157 109.5t189 38.5q203 0 346.5 -147.5t143.5 -356.5q0 -210 -144 -358q-68 -70 -158 -109.5t-188 -39.5z"/>
<glyph horiz-adv-x="1540" glyph-name="otilde" unicode="õ" d="M972 1639q-45 59 -126 59q-48 0 -96 -27q-25 -14 -47 -14q-18 0 -32 7l-8 6q-2 0 -3 1v1h-1l-20 19l-77 -101l20 -19q50 -46 121 -46q52 0 102 29q22 12 41 12q14 0 28 -8q3 -1 7 -5l3 -3l17 -22l88 89zM766 1458q-147 0 -280.5 -56.5t-235.5 -160.5 q-101 -104 -156.5 -240t-55.5 -285q0 -150 55.5 -285.5t156.5 -240.5q102 -104 235.5 -160.5t280.5 -56.5t280.5 56.5t234.5 160.5q101 105 157 240.5t56 285.5q0 149 -56 285t-157 240t-234.5 160.5t-280.5 56.5zM766 209q-100 0 -191 40.5t-156.5 108.5t-104.5 161.5 t-39 196.5q0 209 145 356q67 71 157 109.5t189 38.5q203 0 346.5 -147.5t143.5 -356.5q0 -210 -144 -358q-68 -70 -158 -109.5t-188 -39.5z"/>
<glyph horiz-adv-x="1540" glyph-name="odieresis" unicode="ö" d="M741 1581q0 -32 -21.5 -54t-52.5 -22q-30 0 -51.5 22t-21.5 54t21.5 54t51.5 22q31 0 52.5 -22t21.5 -54zM942 1581q0 -32 -21.5 -54t-51.5 -22q-31 0 -52 23q-22 21 -22 53t22 53q21 23 52 23q30 0 51.5 -22t21.5 -54zM766 1458q-147 0 -280.5 -56.5t-235.5 -160.5 q-101 -104 -156.5 -240t-55.5 -285q0 -150 55.5 -285.5t156.5 -240.5q102 -104 235.5 -160.5t280.5 -56.5t280.5 56.5t234.5 160.5q101 105 157 240.5t56 285.5q0 149 -56 285t-157 240t-234.5 160.5t-280.5 56.5zM766 209q-100 0 -191 40.5t-156.5 108.5t-104.5 161.5 t-39 196.5q0 209 145 356q67 71 157 109.5t189 38.5q203 0 346.5 -147.5t143.5 -356.5q0 -210 -144 -358q-68 -70 -158 -109.5t-188 -39.5z"/>
<glyph horiz-adv-x="587" glyph-name="divide" unicode="÷" d="M302 1114q-45 0 -77 -32.5t-32 -78.5q0 -47 32 -79.5t77 -32.5t76.5 32.5t31.5 79.5q0 46 -31.5 78.5t-76.5 32.5zM0 581h587v218h-587v-218zM302 504q-45 0 -77 -32.5t-32 -78.5t32 -79t77 -33t76.5 33t31.5 79t-31.5 78.5t-76.5 32.5z"/>
<glyph horiz-adv-x="1536" glyph-name="oslash" unicode="ø" d="M1133 1531h-247l-27 -90q-46 7 -97 7q-145 0 -276 -56t-231 -158q-100 -103 -155 -236.5t-55 -281.5q0 -208 107 -383.5t286 -268.5l-47 -155h248l25 82q50 -6 98 -6q145 0 275.5 56t231.5 158q100 103 155 237t55 280q0 209 -107.5 385t-287.5 269zM279 716 q0 207 141 352q67 70 156 108t186 38h14l13 -1l-281 -919q-106 67 -167.5 179.5t-61.5 242.5zM748 219l-14 1l280 920q107 -67 169 -180t62 -244q0 -206 -142 -351q-67 -70 -155.5 -108t-185.5 -38h-14z"/>
<glyph horiz-adv-x="1167" glyph-name="ugrave" unicode="ù" d="M419 1725l120 -211h146l-66 211h-200zM821 461q0 -96 -68.5 -164t-164.5 -68t-164 68t-68 164v971h-239v-971q0 -128 63 -236.5t171.5 -172t236.5 -63.5q195 0 333.5 138.5t138.5 333.5v971h-239v-971z"/>
<glyph horiz-adv-x="1167" glyph-name="uacute" unicode="ú" d="M570 1726l-66 -211h146l120 211h-200zM821 461q0 -96 -68.5 -164t-164.5 -68t-164 68t-68 164v971h-239v-971q0 -128 63 -236.5t171.5 -172t236.5 -63.5q195 0 333.5 138.5t138.5 333.5v971h-239v-971z"/>
<glyph horiz-adv-x="1167" glyph-name="ucircumflex" unicode="û" d="M504 1741l-145 -235h153l73 118l78 -118h153l-150 235h-162zM821 461q0 -96 -68.5 -164t-164.5 -68t-164 68t-68 164v971h-239v-971q0 -128 63 -236.5t171.5 -172t236.5 -63.5q195 0 333.5 138.5t138.5 333.5v971h-239v-971z"/>
<glyph horiz-adv-x="1167" glyph-name="udieresis" unicode="ü" d="M570 1574q0 -32 -21.5 -54t-52.5 -22q-30 0 -51.5 22t-21.5 54t21.5 54t51.5 22q31 0 52.5 -22t21.5 -54zM771 1574q0 -32 -21.5 -54t-51.5 -22q-31 0 -52 23q-22 21 -22 53t22 53q21 23 52 23q30 0 51.5 -22t21.5 -54zM821 461q0 -96 -68.5 -164t-164.5 -68t-164 68 t-68 164v971h-239v-971q0 -128 63 -236.5t171.5 -172t236.5 -63.5q195 0 333.5 138.5t138.5 333.5v971h-239v-971z"/>
<glyph horiz-adv-x="1216" glyph-name="yacute" unicode="ý" d="M589 1709l-66 -211h146l120 211h-200zM911 1432l-300 -606l-307 604l-1 2h-264l455 -900v-532h237v533l442 893l3 6h-265z"/>
</font>
</defs>
</svg>
